<svg xmlns="http://www.w3.org/2000/svg" width="156.291" height="71.709" viewBox="0 0 156.291 71.709"><defs><style>.a,.c{fill:#bcbcbc;}.a,.b{stroke:#bcbcbc;}.b{fill:none;}.d{fill:#d7d7d7;}</style></defs><path class="a" d="M0,42.8a3.36,3.36,0,0,0,3.36,3.36H42.929a3.36,3.36,0,0,0,3.36-3.36V0H0Z" transform="translate(46.789 46.656) rotate(180)"/><path class="b" d="M0,24.421H46.289V3.36A3.36,3.36,0,0,0,42.929,0H3.36A3.36,3.36,0,0,0,0,3.36Z" transform="translate(46.789 71.209) rotate(180)"/><rect class="c" width="22.586" height="4.118" rx="2.059" transform="translate(7.01 53.28)"/><rect class="d" width="30.975" height="4.118" rx="2.059" transform="translate(7.01 59.457)"/><path class="a" d="M0,42.8a3.36,3.36,0,0,0,3.36,3.36H42.929a3.36,3.36,0,0,0,3.36-3.36V0H0Z" transform="translate(101.29 46.656) rotate(180)"/><path class="b" d="M0,24.421H46.289V3.36A3.36,3.36,0,0,0,42.929,0H3.36A3.36,3.36,0,0,0,0,3.36Z" transform="translate(101.29 71.209) rotate(180)"/><rect class="c" width="22.586" height="4.118" rx="2.059" transform="translate(61.511 53.28)"/><rect class="d" width="30.975" height="4.118" rx="2.059" transform="translate(61.511 59.457)"/><path class="a" d="M0,42.8a3.36,3.36,0,0,0,3.36,3.36H42.929a3.36,3.36,0,0,0,3.36-3.36V0H0Z" transform="translate(155.791 46.656) rotate(180)"/><path class="b" d="M0,24.421H46.289V3.36A3.36,3.36,0,0,0,42.929,0H3.36A3.36,3.36,0,0,0,0,3.36Z" transform="translate(155.791 71.209) rotate(180)"/><rect class="c" width="22.586" height="4.118" rx="2.059" transform="translate(116.013 53.28)"/><rect class="d" width="30.975" height="4.118" rx="2.059" transform="translate(116.013 59.457)"/></svg>