<svg xmlns="http://www.w3.org/2000/svg" width="155.831" height="71.5" viewBox="0 0 155.831 71.5"><defs><style>.a{fill:none;stroke:#bcbcbc;}.b,.c{fill:#bcbcbc;}.c{opacity:0.6;}.d{fill:#d7d7d7;}</style></defs><path class="a" d="M0,42.67a3.35,3.35,0,0,0,3.35,3.35H42.8a3.35,3.35,0,0,0,3.35-3.35V0H0Z" transform="translate(46.652 46.52) rotate(180)"/><path class="a" d="M0,24.348H46.152v-21A3.35,3.35,0,0,0,42.8,0H3.35A3.35,3.35,0,0,0,0,3.35Z" transform="translate(46.652 71) rotate(180)"/><rect class="b" width="22.519" height="4.106" rx="2.053" transform="translate(6.991 53.123)"/><rect class="c" width="30.883" height="4.106" rx="2.053" transform="translate(6.991 59.283)"/><rect class="b" width="20.843" height="20.843" rx="5" transform="translate(13.527 12.782)"/><path class="a" d="M0,42.67a3.35,3.35,0,0,0,3.35,3.35H42.8a3.35,3.35,0,0,0,3.35-3.35V0H0Z" transform="translate(100.991 46.52) rotate(180)"/><path class="a" d="M0,24.348H46.152v-21A3.35,3.35,0,0,0,42.8,0H3.35A3.35,3.35,0,0,0,0,3.35Z" transform="translate(100.991 71) rotate(180)"/><rect class="b" width="22.519" height="4.106" rx="2.053" transform="translate(61.331 53.123)"/><rect class="d" width="30.883" height="4.106" rx="2.053" transform="translate(61.331 59.283)"/><rect class="b" width="20.843" height="20.843" rx="5" transform="translate(67.866 12.782)"/><path class="a" d="M0,42.67a3.35,3.35,0,0,0,3.35,3.35H42.8a3.35,3.35,0,0,0,3.35-3.35V0H0Z" transform="translate(155.331 46.52) rotate(180)"/><path class="a" d="M0,24.348H46.152v-21A3.35,3.35,0,0,0,42.8,0H3.35A3.35,3.35,0,0,0,0,3.35Z" transform="translate(155.331 71) rotate(180)"/><rect class="b" width="22.519" height="4.106" rx="2.053" transform="translate(115.67 53.123)"/><rect class="d" width="30.883" height="4.106" rx="2.053" transform="translate(115.67 59.283)"/><rect class="b" width="20.843" height="20.843" rx="5" transform="translate(122.206 12.782)"/></svg>