<svg xmlns="http://www.w3.org/2000/svg" width="155.192" height="71.209" viewBox="0 0 155.192 71.209"><defs><style>.a{fill:none;stroke:#bcbcbc;}.b{fill:#bcbcbc;}.c{fill:#d7d7d7;}</style></defs><path class="a" d="M0,42.494A3.336,3.336,0,0,0,3.336,45.83H42.625a3.336,3.336,0,0,0,3.336-3.336V0H0Z" transform="translate(46.461 46.33) rotate(180)"/><path class="a" d="M0,24.248H45.961V3.336A3.336,3.336,0,0,0,42.625,0H3.336A3.336,3.336,0,0,0,0,3.336Z" transform="translate(46.461 70.709) rotate(180)"/><rect class="b" width="22.426" height="4.089" rx="2.045" transform="translate(6.964 52.906)"/><rect class="c" width="30.755" height="4.089" rx="2.045" transform="translate(6.964 59.04)"/><rect class="b" width="35.583" height="45.961" transform="translate(6.06 0.871)"/><path class="a" d="M0,42.494A3.336,3.336,0,0,0,3.336,45.83H42.625a3.336,3.336,0,0,0,3.336-3.336V0H0Z" transform="translate(100.577 46.33) rotate(180)"/><path class="a" d="M0,24.248H45.961V3.336A3.336,3.336,0,0,0,42.625,0H3.336A3.336,3.336,0,0,0,0,3.336Z" transform="translate(100.577 70.709) rotate(180)"/><rect class="b" width="22.426" height="4.089" rx="2.045" transform="translate(61.08 52.906)"/><rect class="c" width="30.755" height="4.089" rx="2.045" transform="translate(61.08 59.04)"/><rect class="b" width="35.583" height="45.961" transform="translate(60.175 0.871)"/><path class="a" d="M0,42.494A3.336,3.336,0,0,0,3.336,45.83H42.625a3.336,3.336,0,0,0,3.336-3.336V0H0Z" transform="translate(154.692 46.33) rotate(180)"/><path class="a" d="M0,24.248H45.961V3.336A3.336,3.336,0,0,0,42.625,0H3.336A3.336,3.336,0,0,0,0,3.336Z" transform="translate(154.692 70.709) rotate(180)"/><rect class="b" width="22.426" height="4.089" rx="2.045" transform="translate(115.195 52.906)"/><rect class="c" width="30.755" height="4.089" rx="2.045" transform="translate(115.195 59.04)"/><rect class="b" width="35.583" height="45.961" transform="translate(114.291 0.871)"/></svg>