<svg xmlns="http://www.w3.org/2000/svg" width="16.824" height="16.815" viewBox="0 0 16.824 16.815">
  <g id="Group_284" data-name="Group 284" transform="translate(-146.662 -63.664)">
    <path id="Path_176" data-name="Path 176" d="M155.822,80.732a6.317,6.317,0,0,1-1.934-1.149c-.137.158-.28.3-.4.466a.5.5,0,0,1-.481.218c-.18-.014-.362,0-.543-.005a.236.236,0,0,0-.258.142.817.817,0,0,1-1.026.36.839.839,0,0,1,.351-1.618.793.793,0,0,1,.689.442.176.176,0,0,0,.2.117.531.531,0,0,1,.07,0c.612,0,.612,0,.956-.485-.279-.392-.554-.775-.824-1.161a.907.907,0,0,1-.143-.26.439.439,0,0,0-.556-.341,3.7,3.7,0,0,1-.595,0,.226.226,0,0,0-.243.138.817.817,0,0,1-1.025.365.839.839,0,1,1,1.048-1.169.208.208,0,0,0,.132.1c.274.01.548,0,.844,0a6.488,6.488,0,0,1-.318-1.967,6.4,6.4,0,0,1,.32-1.957c-.3,0-.576-.006-.855.006-.048,0-.1.073-.136.125a.839.839,0,1,1-.928-1.226.811.811,0,0,1,.921.406.214.214,0,0,0,.229.131c.292-.006.584,0,.876-.006a.2.2,0,0,0,.149-.077,6.422,6.422,0,0,1,1.132-1.65c-.135-.16-.265-.315-.4-.467a.136.136,0,0,0-.089-.042c-.216,0-.433-.01-.648,0-.047,0-.1.081-.13.135a.839.839,0,1,1-.682-1.261.794.794,0,0,1,.689.441.189.189,0,0,0,.2.119c.216-.006.432.006.648,0a.433.433,0,0,1,.39.185c.133.169.28.327.428.5a6.284,6.284,0,0,1,1.945-1.151l-.255-.342c-.256-.341-.514-.68-.766-1.024a.268.268,0,0,0-.244-.128q-1.629.008-3.259,0a.2.2,0,0,0-.214.126.817.817,0,0,1-.936.407.837.837,0,0,1-.009-1.621.811.811,0,0,1,.939.4.227.227,0,0,0,.245.134c1.133,0,2.266,0,3.4,0a.459.459,0,0,1,.414.2c.379.518.771,1.027,1.152,1.544a.215.215,0,0,0,.261.1,6.018,6.018,0,0,1,2.759,0,.2.2,0,0,0,.248-.089c.388-.526.786-1.045,1.174-1.571a.417.417,0,0,1,.37-.184c1.151,0,2.3,0,3.452,0a.2.2,0,0,0,.215-.125.815.815,0,0,1,.935-.409.837.837,0,0,1,0,1.625.815.815,0,0,1-.933-.414.193.193,0,0,0-.2-.12c-1.092,0-2.184,0-3.276,0a.245.245,0,0,0-.171.05c-.363.471-.718.947-1.086,1.437a6.337,6.337,0,0,1,1.944,1.156c.141-.163.286-.314.41-.479a.479.479,0,0,1,.451-.206c.2.013.409,0,.613,0a.177.177,0,0,0,.188-.11.814.814,0,0,1,.943-.424.838.838,0,1,1-.953,1.2c-.03-.051-.109-.075-.168-.1a.218.218,0,0,0-.087,0c-.611,0-.611,0-.96.488.267.369.536.728.789,1.1a3.163,3.163,0,0,1,.282.523.2.2,0,0,0,.225.136c.274-.008.549-.007.823,0a.226.226,0,0,0,.243-.137.817.817,0,0,1,1.024-.366.839.839,0,0,1-.341,1.62.8.8,0,0,1-.692-.437.19.19,0,0,0-.2-.123c-.256.007-.513,0-.794,0a6.192,6.192,0,0,1,0,3.924c.3,0,.577.006.856-.006.048,0,.1-.073.136-.125a.839.839,0,1,1,.962,1.218.816.816,0,0,1-.955-.4.214.214,0,0,0-.229-.13c-.292.006-.584,0-.876.006a.2.2,0,0,0-.149.078,6.436,6.436,0,0,1-1.132,1.649c.136.16.265.315.4.467a.135.135,0,0,0,.089.042c.216,0,.433.01.648,0,.047,0,.1-.082.13-.136a.839.839,0,1,1,.7,1.262.8.8,0,0,1-.706-.442.188.188,0,0,0-.2-.118c-.21.006-.421-.008-.63,0a.456.456,0,0,1-.419-.2c-.128-.165-.272-.318-.415-.485a6.362,6.362,0,0,1-1.945,1.152l.435.581c.2.266.395.536.6.8a.312.312,0,0,0,.21.11c1.1.007,2.2,0,3.294.007a.18.18,0,0,0,.187-.113.815.815,0,0,1,.945-.42.837.837,0,0,1,.006,1.621.811.811,0,0,1-.947-.415.2.2,0,0,0-.22-.116c-1.139,0-2.278,0-3.417,0a.459.459,0,0,1-.413-.2c-.379-.518-.771-1.027-1.152-1.544a.215.215,0,0,0-.263-.094,6.015,6.015,0,0,1-2.759,0,.2.2,0,0,0-.247.092c-.385.521-.78,1.035-1.163,1.557a.445.445,0,0,1-.4.2c-1.133-.005-2.266,0-3.4-.005a.243.243,0,0,0-.258.142.814.814,0,0,1-.944.388.838.838,0,0,1,.01-1.617.815.815,0,0,1,.94.4.216.216,0,0,0,.227.134c1.081,0,2.161,0,3.241-.006a.311.311,0,0,0,.22-.091c.337-.433.663-.874.992-1.314C155.788,80.794,155.8,80.768,155.822,80.732Zm2.109-11.4a5.606,5.606,0,1,0,5.613,5.595A5.615,5.615,0,0,0,157.931,69.333Z" transform="translate(-2.863 -2.866)" fill="#0c9eda"/>
    <path id="Path_178" data-name="Path 178" d="M174.211,86.135a5.045,5.045,0,1,1-5.06,5.018A5.053,5.053,0,0,1,174.211,86.135Zm-1.7,4.9-.036.006c-.183-.364-.365-.729-.549-1.093a.267.267,0,0,0-.317-.159.258.258,0,0,0-.216.263q0,1.129,0,2.259a.27.27,0,0,0,.268.27.28.28,0,0,0,.287-.27c.006-.064,0-.128,0-.193v-.793c.209.341.386.686.556,1.035.071.145.165.243.338.215.151-.025.227-.143.227-.344q0-1.051,0-2.1c0-.221-.106-.349-.28-.349s-.279.128-.28.349C172.513,90.431,172.515,90.732,172.515,91.034Zm1.686-.7c.289,0,.562,0,.835,0a.278.278,0,1,0,0-.556q-.56-.009-1.121,0a.264.264,0,0,0-.28.276q-.007,1.121,0,2.241a.273.273,0,0,0,.275.282.282.282,0,0,0,.282-.311c0-.266,0-.532,0-.809.186,0,.349,0,.511,0,.2,0,.33-.113.328-.283s-.128-.274-.335-.276c-.167,0-.333,0-.5,0Zm1.957-1.462a.879.879,0,0,0-.174-.2c-.524-.359-1.057-.706-1.584-1.061a.324.324,0,0,0-.4,0c-.527.355-1.057.706-1.586,1.059l-.029.02a.279.279,0,0,0-.094.408.274.274,0,0,0,.4.057q.695-.455,1.383-.921a.183.183,0,0,1,.246,0c.286.2.58.391.872.585.18.12.355.246.54.356S176.157,89.154,176.157,88.876ZM172.481,93.1c-.079.08-.182.144-.225.236-.066.141.014.255.138.338.534.355,1.069.71,1.6,1.069a.335.335,0,0,0,.418-.009c.517-.349,1.038-.692,1.557-1.04.2-.131.242-.289.135-.439s-.256-.154-.447-.027c-.447.3-.9.592-1.338.895a.184.184,0,0,1-.245,0c-.443-.3-.891-.6-1.339-.893C172.669,93.191,172.593,93.161,172.481,93.1Zm3.958-2.767v.2q0,.839,0,1.679c0,.231.108.364.287.359s.273-.132.273-.355q0-.848,0-1.7v-.19c.115,0,.2.005.289,0a.278.278,0,0,0,.27-.287.271.271,0,0,0-.27-.268q-.568-.01-1.137,0a.271.271,0,0,0-.273.283.276.276,0,0,0,.267.272C176.238,90.344,176.33,90.338,176.439,90.338Zm-5.608.851a.279.279,0,1,0-.287.271A.282.282,0,0,0,170.831,91.188Zm7.289-.014a.279.279,0,1,0-.273.285A.282.282,0,0,0,178.12,91.174Z" transform="translate(-19.123 -19.108)" fill="#0c9eda"/>
    <rect id="Rectangle_257" data-name="Rectangle 257" width="8" height="4" transform="translate(151.069 70.057)" fill="#0c9eda"/>
  </g>
</svg>
