<svg xmlns="http://www.w3.org/2000/svg" width="122.419" height="89.801" viewBox="0 0 122.419 89.801"><defs><style>.a{fill:#fff;stroke:#bcbcbc;}.b{fill:#bcbcbc;opacity:0.3;}.c,.d{fill:none;}.c{stroke:#e2e6ef;}.d{stroke:#0c9eda;stroke-linecap:round;stroke-linejoin:round;stroke-width:4px;}.e{fill:#b5e2f4;}</style></defs><g transform="translate(-0.818 -0.834)"><rect class="a" width="121.419" height="88.801" rx="4.5" transform="translate(1.318 1.334)"/><rect class="b" width="11.183" height="7.339" rx="3.67" transform="translate(14.699 20.456)"/><line class="c" x2="77.793" transform="translate(31.562 23.677)"/><line class="c" x2="77.793" transform="translate(31.562 39.986)"/><line class="c" x2="77.793" transform="translate(31.562 56.295)"/><rect class="b" width="11.183" height="7.339" rx="3.67" transform="translate(14.699 36.765)"/><path class="d" d="M36.048,58.647H51.774L65.4,42.746h13.28L93.012,26.03,107.69,42.746" transform="translate(-3.578 -2.544)"/><rect class="b" width="11.183" height="7.339" rx="3.67" transform="translate(14.699 53.074)"/><rect class="b" width="7.339" height="7.339" rx="3.67" transform="translate(30.776 63.674)"/><rect class="b" width="7.339" height="7.339" rx="3.67" transform="translate(44.754 63.674)"/><rect class="b" width="7.339" height="7.339" rx="3.67" transform="translate(58.733 63.674)"/><rect class="b" width="7.339" height="7.339" rx="3.67" transform="translate(72.713 63.674)"/><rect class="b" width="7.339" height="7.339" rx="3.67" transform="translate(86.692 63.674)"/><rect class="b" width="7.339" height="7.339" rx="3.67" transform="translate(100.671 63.674)"/><path class="e" d="M67.015,56.414a1.747,1.747,0,1,1,3.495,0v5.824H67.015Z" transform="translate(-6.768 -5.494)"/><path class="e" d="M82.471,56.414a1.747,1.747,0,1,1,3.495,0v5.824H82.471Z" transform="translate(-8.36 -5.494)"/><path class="e" d="M97.927,49.141a1.747,1.747,0,1,1,3.495,0V61.488H97.927Z" transform="translate(-9.952 -4.745)"/><path class="e" d="M113.64,56.414a1.747,1.747,0,1,1,3.495,0v5.824H113.64Z" transform="translate(-11.571 -5.494)"/></g></svg>