<svg xmlns="http://www.w3.org/2000/svg" width="16" height="18.286" viewBox="0 0 16 18.286"><defs><style>.a{fill:#0c9eda;}</style></defs><path class="a" d="M10.615,8.686a.936.936,0,1,1-.933-1.015A.974.974,0,0,1,10.615,8.686ZM6.345,7.671a1.018,1.018,0,0,0,0,2.03.974.974,0,0,0,.933-1.015A.968.968,0,0,0,6.345,7.671ZM16,1.883v16.4c-2.3-2.035-1.567-1.362-4.242-3.849l.485,1.691H1.874A1.879,1.879,0,0,1,0,14.245V1.883A1.879,1.879,0,0,1,1.874,0H14.126A1.879,1.879,0,0,1,16,1.883Zm-2.606,8.667a12.244,12.244,0,0,0-1.317-5.33,4.521,4.521,0,0,0-2.569-.96l-.128.146a6.085,6.085,0,0,1,2.277,1.161A7.769,7.769,0,0,0,4.827,5.3c-.338.155-.539.265-.539.265a6.168,6.168,0,0,1,2.4-1.2L6.6,4.261a4.521,4.521,0,0,0-2.569.96,12.244,12.244,0,0,0-1.317,5.33A3.315,3.315,0,0,0,5.5,11.941s.338-.411.613-.759a2.844,2.844,0,0,1-1.6-1.079c.135.094.356.216.375.229a6.665,6.665,0,0,0,5.705.32,5.232,5.232,0,0,0,1.051-.539A2.885,2.885,0,0,1,9.993,11.2c.274.347.6.741.6.741A3.342,3.342,0,0,0,13.394,10.551Z"/></svg>