<svg xmlns="http://www.w3.org/2000/svg" width="167.89" height="125.917" viewBox="0 0 167.89 125.917"><defs><style>.a{fill:#bcbcbc;opacity:0.3;}</style></defs><path class="a" d="M152.15,130.417H15.74A15.74,15.74,0,0,1,0,114.678V20.24A15.74,15.74,0,0,1,15.74,4.5H152.15a15.74,15.74,0,0,1,15.74,15.74v94.438A15.74,15.74,0,0,1,152.15,130.417ZM36.726,22.863A18.363,18.363,0,1,0,55.089,41.226,18.363,18.363,0,0,0,36.726,22.863Zm-15.74,86.568H146.9V72.705l-28.7-28.7a3.935,3.935,0,0,0-5.565,0L68.205,88.445,50,70.241a3.935,3.935,0,0,0-5.565,0l-23.45,23.45Z" transform="translate(0 -4.5)"/></svg>