<svg xmlns="http://www.w3.org/2000/svg" width="65.153" height="47.878" viewBox="0 0 65.153 47.878"><defs><style>.a{fill:#fff;stroke:#bcbcbc;}.b{fill:#bcbcbc;}.c{fill:#3291e9;}.d{fill:#0c9eda;}</style></defs><g transform="translate(-0.476 -0.311)"><rect class="a" width="36.924" height="26.241" rx="4.5" transform="translate(0.976 0.811)"/><rect class="b" width="7.214" height="7.215" rx="3.607" transform="translate(15.831 3.966)"/><rect class="b" width="24.94" height="3.887" rx="1.944" transform="translate(6.969 13.652)"/><path class="c" d="M23.086,33.185a1.944,1.944,0,0,1,1.944-1.943h5.138a1.944,1.944,0,1,1,0,3.887H25.029A1.944,1.944,0,0,1,23.086,33.185Z" transform="translate(-8.16 -11.231)"/><rect class="a" width="36.924" height="26.241" rx="4.5" transform="translate(14.59 13.968)"/><rect class="b" width="7.214" height="7.215" rx="3.607" transform="translate(29.445 17.122)"/><rect class="b" width="24.94" height="3.887" rx="1.944" transform="translate(20.582 26.809)"/><path class="c" d="M44.663,54.038a1.944,1.944,0,0,1,1.943-1.943h5.138a1.944,1.944,0,0,1,0,3.887H46.607A1.944,1.944,0,0,1,44.663,54.038Z" transform="translate(-16.124 -18.927)"/><path class="a" d="M2.839,0H34.085a2.839,2.839,0,0,1,2.839,2.839V23.4a2.839,2.839,0,0,1-2.839,2.839H2.839A2.839,2.839,0,0,1,0,23.4V2.839A2.839,2.839,0,0,1,2.839,0Z" transform="translate(28.205 21.447)"/><rect class="b" width="7.214" height="7.215" rx="3.607" transform="translate(43.06 24.602)"/><rect class="b" width="24.94" height="3.887" rx="1.944" transform="translate(34.197 34.288)"/><path class="d" d="M66.242,65.894a1.944,1.944,0,0,1,1.944-1.943h5.138a1.944,1.944,0,0,1,0,3.887H68.186A1.944,1.944,0,0,1,66.242,65.894Z" transform="translate(-24.088 -23.303)"/></g></svg>