<svg xmlns="http://www.w3.org/2000/svg" width="19.587" height="13.058" viewBox="0 0 19.587 13.058"><defs><style>.a{fill:#707070;}</style></defs><path class="a" d="M19.469,10.532A10.907,10.907,0,0,0,9.793,4.5,10.908,10.908,0,0,0,.118,10.533a1.1,1.1,0,0,0,0,.993,10.907,10.907,0,0,0,9.675,6.032,10.908,10.908,0,0,0,9.675-6.033A1.1,1.1,0,0,0,19.469,10.532ZM9.793,15.926a4.9,4.9,0,1,1,4.9-4.9A4.9,4.9,0,0,1,9.793,15.926Zm0-8.161a3.241,3.241,0,0,0-.861.129,1.627,1.627,0,0,1-2.275,2.275,3.257,3.257,0,1,0,3.136-2.4Z" transform="translate(0 -4.5)"/></svg>