<svg xmlns="http://www.w3.org/2000/svg" width="16.936" height="14.819" viewBox="0 0 16.936 14.819"><defs><style>.a{fill:#0c9eda;}</style></defs><path class="a" d="M1.058,16.01a1.057,1.057,0,0,0,1.058,1.058H7.409V11.776H1.058Zm8.468,1.058h5.292a1.057,1.057,0,0,0,1.058-1.058V11.776H9.526ZM15.877,6.484H14.485a2.884,2.884,0,0,0,.334-1.323A2.915,2.915,0,0,0,11.908,2.25c-1.376,0-2.266.7-3.407,2.259C7.36,2.955,6.47,2.25,5.094,2.25A2.915,2.915,0,0,0,2.183,5.161a2.844,2.844,0,0,0,.334,1.323H1.058A1.057,1.057,0,0,0,0,7.542v2.646a.531.531,0,0,0,.529.529H16.406a.531.531,0,0,0,.529-.529V7.542A1.057,1.057,0,0,0,15.877,6.484Zm-10.786,0a1.323,1.323,0,1,1,0-2.646c.658,0,1.144.109,2.848,2.646H5.091Zm6.817,0H9.06c1.7-2.53,2.173-2.646,2.848-2.646a1.323,1.323,0,1,1,0,2.646Z" transform="translate(0 -2.25)"/></svg>