<svg xmlns="http://www.w3.org/2000/svg" width="13.88" height="13.883" viewBox="0 0 13.88 13.883"><defs><style>.a{fill:#fff;}</style></defs><path class="a" d="M14.293,4.082A5.073,5.073,0,0,0,13.971,2.4,3.556,3.556,0,0,0,11.939.366,5.086,5.086,0,0,0,10.255.043C9.512.008,9.276,0,7.391,0S5.271.008,4.53.041A5.074,5.074,0,0,0,2.846.363a3.387,3.387,0,0,0-1.231.8,3.418,3.418,0,0,0-.8,1.229A5.086,5.086,0,0,0,.492,4.079c-.035.743-.043.979-.043,2.864S.457,9.064.489,9.8a5.073,5.073,0,0,0,.323,1.684,3.556,3.556,0,0,0,2.031,2.031,5.087,5.087,0,0,0,1.684.323c.74.033.976.041,2.861.041s2.121-.008,2.861-.041a5.072,5.072,0,0,0,1.684-.323,3.551,3.551,0,0,0,2.031-2.031A5.09,5.09,0,0,0,14.288,9.8c.033-.74.041-.976.041-2.861s0-2.121-.035-2.861ZM13.043,9.75a3.805,3.805,0,0,1-.239,1.288,2.3,2.3,0,0,1-1.318,1.318,3.819,3.819,0,0,1-1.288.239c-.732.033-.952.041-2.8.041s-2.075-.008-2.8-.041A3.8,3.8,0,0,1,3.3,12.356a2.136,2.136,0,0,1-.8-.518,2.158,2.158,0,0,1-.518-.8,3.819,3.819,0,0,1-.239-1.288c-.033-.732-.041-.952-.041-2.8s.008-2.075.041-2.8a3.8,3.8,0,0,1,.239-1.288,2.11,2.11,0,0,1,.521-.8,2.155,2.155,0,0,1,.8-.518A3.821,3.821,0,0,1,4.593,1.3c.732-.033.952-.041,2.8-.041s2.075.008,2.8.041a3.805,3.805,0,0,1,1.288.239,2.135,2.135,0,0,1,.8.518,2.158,2.158,0,0,1,.518.8,3.821,3.821,0,0,1,.239,1.288c.033.732.041.952.041,2.8s-.008,2.069-.041,2.8Zm0,0" transform="translate(-0.449 0)"/><path class="a" d="M128.515,124.5a3.566,3.566,0,1,0,3.566,3.566A3.567,3.567,0,0,0,128.515,124.5Zm0,5.88a2.313,2.313,0,1,1,2.313-2.313A2.314,2.314,0,0,1,128.515,130.38Zm0,0" transform="translate(-121.573 -121.124)"/><path class="a" d="M364.115,89.434a.833.833,0,1,1-.833-.833.833.833,0,0,1,.833.833Zm0,0" transform="translate(-352.632 -86.199)"/></svg>