<svg xmlns="http://www.w3.org/2000/svg" width="19.735" height="16.035" viewBox="0 0 19.735 16.035"><defs><style>.a{fill:#0c9eda;}</style></defs><path class="a" d="M1.85,3.375A1.85,1.85,0,1,0,3.7,5.225a1.85,1.85,0,0,0-1.85-1.85Zm0,6.167a1.85,1.85,0,1,0,1.85,1.85,1.85,1.85,0,0,0-1.85-1.85Zm0,6.167A1.85,1.85,0,1,0,3.7,17.56a1.85,1.85,0,0,0-1.85-1.85Zm17.268.617H6.784a.617.617,0,0,0-.617.617v1.233a.617.617,0,0,0,.617.617H19.119a.617.617,0,0,0,.617-.617V16.943A.617.617,0,0,0,19.119,16.326Zm0-12.335H6.784a.617.617,0,0,0-.617.617V5.842a.617.617,0,0,0,.617.617H19.119a.617.617,0,0,0,.617-.617V4.608A.617.617,0,0,0,19.119,3.992Zm0,6.167H6.784a.617.617,0,0,0-.617.617v1.233a.617.617,0,0,0,.617.617H19.119a.617.617,0,0,0,.617-.617V10.776A.617.617,0,0,0,19.119,10.159Z" transform="translate(0 -3.375)"/></svg>