<svg xmlns="http://www.w3.org/2000/svg" width="36" height="36" viewBox="0 0 36 36"><defs><style>.a{fill:#fff;stroke:#0c9eda;stroke-width:0.5px;}.b{fill:#0c9eda;}.c{stroke:none;}.d{fill:none;}</style></defs><g transform="translate(-1658 -116)"><g class="a" transform="translate(1658 116)"><path class="c" d="M2,0H34a2,2,0,0,1,2,2V36a0,0,0,0,1,0,0H2a2,2,0,0,1-2-2V2A2,2,0,0,1,2,0Z"/><path class="d" d="M2,.25H34A1.75,1.75,0,0,1,35.75,2V35.5a.25.25,0,0,1-.25.25H2A1.75,1.75,0,0,1,.25,34V2A1.75,1.75,0,0,1,2,.25Z"/></g><path class="b" d="M3,13H4.778V11H3Zm0,4H4.778V15H3ZM3,9H4.778V7H3Zm3.556,4H19V11H6.556Zm0,4H19V15H6.556Zm0-10V9H19V7Z" transform="translate(1665 122)"/></g></svg>