<svg xmlns="http://www.w3.org/2000/svg" width="14.5" height="18.85" viewBox="0 0 14.5 18.85"><defs><style>.a{fill:#0c9eda;}</style></defs><path class="a" d="M19.438,9.9H10.919V7.725a3.081,3.081,0,0,1,6.162,0h0a.634.634,0,0,0,1.269,0h0a4.35,4.35,0,1,0-8.7.059V9.9H8.563A1.818,1.818,0,0,0,6.75,11.712v8.7a1.818,1.818,0,0,0,1.813,1.813H19.438a1.818,1.818,0,0,0,1.813-1.812v-8.7A1.818,1.818,0,0,0,19.438,9.9Zm-4.8,5.655v3.117a.65.65,0,0,1-.6.653.635.635,0,0,1-.666-.634V15.555a1.45,1.45,0,1,1,1.269,0Z" transform="translate(-6.75 -3.374)"/></svg>