<svg xmlns="http://www.w3.org/2000/svg" width="16.727" height="16.727" viewBox="0 0 16.727 16.727"><defs><style>.a{fill:#0c9eda;}</style></defs><path class="a" d="M19.233,11.012,11.706,3.485A1.662,1.662,0,0,0,10.527,3H4.673A1.678,1.678,0,0,0,3,4.673v5.854a1.669,1.669,0,0,0,.493,1.188l7.527,7.527a1.662,1.662,0,0,0,1.179.485,1.635,1.635,0,0,0,1.179-.493l5.854-5.854a1.635,1.635,0,0,0,.493-1.179,1.689,1.689,0,0,0-.493-1.188ZM5.927,7.182A1.254,1.254,0,1,1,7.182,5.927,1.253,1.253,0,0,1,5.927,7.182Z" transform="translate(-3 -3)"/></svg>