<svg xmlns="http://www.w3.org/2000/svg" width="53.327" height="53.332" viewBox="0 0 53.327 53.332"><defs><style>.a{fill:#637282;stroke:#fff;}</style></defs><path class="a" d="M354.229,465.045h-.384l-16.809,0q-3.359,0-6.718,0c-.319,0-.344-.024-.344-.334,0-1.035,0-2.07-.006-3.105,0-.3.086-.365.359-.365q11.644.008,23.288.006h.594c.008-.155.02-.28.02-.4q0-4.6,0-9.2,0-7.151-.005-14.3c0-.276.07-.364.364-.361,1.045.011,2.09,0,3.135.006.271,0,.305.035.305.312q0,3.4,0,6.808,0,6.882,0,13.765,0,1.493,0,2.986c0,.108,0,.216,0,.36.138.01.252.025.366.025q3.06,0,6.12,0h11.494l5.911,0c.346,0,.37.019.371.375q.005,1.523,0,3.045c0,.345-.032.377-.374.377q-3.209,0-6.419,0-8.479,0-16.958,0c-.575,0-.514-.053-.514.511q0,8.495,0,16.989,0,3.18,0,6.36c0,.05,0,.1,0,.149-.012.187-.065.24-.255.257-.03,0-.06,0-.09,0l-3.075,0a1.34,1.34,0,0,1-.179-.006.2.2,0,0,1-.2-.215q0-.06,0-.119,0-5.18,0-10.361,0-6.584,0-13.167Z" transform="translate(-329.469 -436.482)"/></svg>