<svg xmlns="http://www.w3.org/2000/svg" width="17.25" height="17.253" viewBox="0 0 17.25 17.253">
  <g id="Group_282" data-name="Group 282" transform="translate(-416.237 -63.008)">
    <path id="Path_167" data-name="Path 167" d="M426.818,80.26l-.172-.058a1.309,1.309,0,0,1-.918-.946c-.051-.182-.073-.372-.113-.585.123.018.225.029.327.047a2.355,2.355,0,0,0,2.8-1.976c.393-2.248.8-4.494,1.186-6.743a2.281,2.281,0,0,0-.731-2.167c-.645-.6-1.3-1.187-1.956-1.78l-.15-.14c.2-.179.406-.348.6-.527a.235.235,0,0,0,.073-.172c-.076-.533-.164-1.064-.245-1.6a.5.5,0,1,1,.989-.173q.14.812.262,1.628a.184.184,0,0,0,.133.165q1.983.836,3.961,1.684a1.323,1.323,0,0,1,.791,1.059q.827,4.7,1.656,9.393a.568.568,0,0,0,.033.091V77.9c-.01.013-.024.025-.027.039a1.331,1.331,0,0,1-1.146,1.079q-.7.126-1.407.248l-4.571.794c-.357.063-.713.132-1.07.2Z" transform="translate(-1.855 0)" fill="#0c9eda"/>
    <path id="Path_169" data-name="Path 169" d="M416.237,75.081c.059-.348.134-.79.212-1.232q.5-2.842,1-5.683a1.343,1.343,0,0,1,.862-1.077c1.267-.513,2.533-1.031,3.807-1.53a.439.439,0,0,0,.332-.4c.078-.566.19-1.128.291-1.691a.517.517,0,0,1,.486-.456.493.493,0,0,1,.5.369.657.657,0,0,1,.008.266c-.1.581-.194,1.162-.309,1.739a.357.357,0,0,0,.136.395c.936.832,1.837,1.7,2.8,2.508a1.839,1.839,0,0,1,.658,1.965c-.4,2.081-.751,4.173-1.116,6.261a1.349,1.349,0,0,1-1.31,1.235,5.22,5.22,0,0,1-.931-.128q-3.132-.549-6.263-1.1A1.388,1.388,0,0,1,416.237,75.081Zm5.252-.214a1.964,1.964,0,0,0,1.083-.375,1.69,1.69,0,0,0-.141-2.89c-.073-.042-.142-.091-.218-.127a.149.149,0,0,1-.095-.2c.062-.29.1-.585.156-.878s.107-.591.171-.939c.171.136.316.238.444.358.2.189.391.221.544.075s.135-.342-.067-.556a1.936,1.936,0,0,0-.808-.513c.02-.13.04-.251.058-.371a.335.335,0,1,0-.659-.119,1.363,1.363,0,0,0-.041.232c0,.147-.075.193-.219.2a1.542,1.542,0,0,0-1.328,1.869,1.445,1.445,0,0,0,.682.864.5.5,0,0,1,.242.63c-.139.646-.238,1.3-.355,1.957-.036-.006-.063-.008-.09-.014a1.8,1.8,0,0,1-.756-.452.326.326,0,0,0-.481.013.338.338,0,0,0,.031.482,2.3,2.3,0,0,0,1.064.617,1.168,1.168,0,0,1,.111.039c-.024.142-.051.274-.068.406a.341.341,0,0,0,.271.43.346.346,0,0,0,.394-.324C421.442,75.15,421.464,75.012,421.489,74.866Z" transform="translate(0 -0.001)" fill="#0c9eda"/>
    <path id="Path_170" data-name="Path 170" d="M422.939,76.415l.355-2.017a.934.934,0,0,1,.67.987A1.157,1.157,0,0,1,422.939,76.415Z" transform="translate(-1.326 -2.254)" fill="#0c9eda"/>
    <path id="Path_171" data-name="Path 171" d="M422.664,72.57a.754.754,0,0,1-.462-.87.841.841,0,0,1,.731-.659Z" transform="translate(-1.176 -1.59)" fill="#0c9eda"/>
  </g>
</svg>
