<svg xmlns="http://www.w3.org/2000/svg" width="15.052" height="19.08" viewBox="0 0 15.052 19.08">
  <g id="Group_283" data-name="Group 283" transform="translate(-407.642 -109.485)">
    <path id="Path_172" data-name="Path 172" d="M416.581,109.485a7.913,7.913,0,0,0,1.435,3.433,6.017,6.017,0,0,0,2.084,1.595,4.431,4.431,0,0,1,2.389,2.689,4.982,4.982,0,0,1,.158,2.137,7.466,7.466,0,0,1-1.276,3.436c-.031.045-.065.087-.1.136-.082-.364-.144-.722-.245-1.068a5.969,5.969,0,0,0-1.969-2.983.336.336,0,0,1-.136-.28,3.015,3.015,0,0,0-.7-1.866,12.293,12.293,0,0,0-1.046-1.136,5.384,5.384,0,0,1-1.568-2.756c-.013-.054-.028-.108-.044-.162,0-.011-.014-.019-.027-.036a5.778,5.778,0,0,0-4.144,5.788.611.611,0,0,1-.232.549,6.016,6.016,0,0,0-2.067,3.865c0,.024-.007.049-.012.076a7.434,7.434,0,0,1-.263-8.418l1.7.463c.021-.179.046-.341.058-.5a4.748,4.748,0,0,1,3.051-4.208,9.186,9.186,0,0,1,2.647-.717.865.865,0,0,0,.123-.034Z" transform="translate(0 0)" fill="#0c9eda"/>
    <path id="Path_173" data-name="Path 173" d="M422.719,145.762a5,5,0,1,1-4.99,5A4.995,4.995,0,0,1,422.719,145.762Zm-2.5,3.2,4.285,4.287.739-.739-4.285-4.285Zm5.1.367v-1.095h-1.243v1.095Zm-5.193,2.849v1.094h1.243v-1.094Z" transform="translate(-7.56 -27.188)" fill="#0c9eda"/>
    <path id="Path_174" data-name="Path 174" d="M427.106,132a4.451,4.451,0,0,1,2.319-3.9,7.094,7.094,0,0,0,.424.8c.3.425.615.839.953,1.233s.737.772,1.089,1.173a2.838,2.838,0,0,1,.364.6A6.285,6.285,0,0,0,427.106,132Z" transform="translate(-14.587 -13.948)" fill="#0c9eda"/>
  </g>
</svg>
