<svg xmlns="http://www.w3.org/2000/svg" width="17.544" height="17.547" viewBox="0 0 17.544 17.547"><defs><style>.a{fill:#0c9eda;}</style></defs><g transform="translate(-40.349 -136.727)"><path class="a" d="M57.893,146.426c-.02.039-.044.078-.063.117a.684.684,0,0,1-1.307-.29q0-3.357,0-6.715a1.368,1.368,0,0,0-1.023-1.387,1.726,1.726,0,0,0-.423-.051q-5.952,0-11.9,0a1.38,1.38,0,0,0-1.452,1.452q0,5.951,0,11.906a1.382,1.382,0,0,0,1.458,1.447c2.295,0,4.59.006,6.885,0a.725.725,0,0,1,.763.549.7.7,0,0,1-.482.8c-.009,0-.015.016-.022.023H42.748a.425.425,0,0,0-.078-.031,2.732,2.732,0,0,1-2.321-2.721V139.459a2.731,2.731,0,0,1,2.731-2.732H55.159a2.742,2.742,0,0,1,2.655,2.069c.028.11.053.22.079.329Z" transform="translate(0 0)"/><path class="a" d="M53.7,150.962a6.226,6.226,0,0,1-.493-.381c-.3-.281-.585-.577-.872-.871a.164.164,0,0,0-.231-.04,3.082,3.082,0,1,1,1.626-2.469,3.03,3.03,0,0,1-.506,1.455c.319.318.644.629.954.956a5.732,5.732,0,0,1,.381.493v.342a.885.885,0,0,1-.514.514Zm-1.336-4.01a1.712,1.712,0,1,0-1.712,1.714A1.73,1.73,0,0,0,52.359,146.952Z" transform="translate(3.339 3.311)"/><path class="a" d="M51.985,148.879a.885.885,0,0,0,.514-.514v.514Z" transform="translate(5.394 5.395)"/><path class="a" d="M48.656,140.743q-1.466,0-2.93,0a.684.684,0,0,1-.192-1.345.72.72,0,0,1,.2-.023q2.929,0,5.857,0a.685.685,0,1,1-.009,1.368Q50.12,140.745,48.656,140.743Z" transform="translate(2.169 1.227)"/><path class="a" d="M48.672,142.183h2.895a.685.685,0,1,1,.007,1.368q-2.911,0-5.823,0a.686.686,0,1,1,.009-1.37Z" transform="translate(2.171 2.529)"/><path class="a" d="M46.19,146.527c-.165,0-.332,0-.5,0a.685.685,0,0,1,0-1.368c.332,0,.663,0,.994,0a.684.684,0,0,1,0,1.368C46.52,146.53,46.355,146.527,46.19,146.527Z" transform="translate(2.171 3.907)"/><path class="a" d="M43.714,140.743c-.114,0-.228,0-.342,0a.684.684,0,0,1,0-1.368q.351,0,.7,0a.684.684,0,0,1,0,1.368C43.953,140.745,43.833,140.743,43.714,140.743Z" transform="translate(1.085 1.226)"/><path class="a" d="M43.731,142.183h.326a.684.684,0,1,1,0,1.368c-.228,0-.457,0-.685,0a.684.684,0,0,1,0-1.368Z" transform="translate(1.085 2.529)"/><path class="a" d="M43.723,145.157h.342a.684.684,0,0,1,0,1.368c-.233,0-.467,0-.7,0a.684.684,0,0,1,0-1.368C43.483,145.156,43.6,145.157,43.723,145.157Z" transform="translate(1.085 3.908)"/></g></svg>