<svg xmlns="http://www.w3.org/2000/svg" width="11.48" height="16.723" viewBox="0 0 11.48 16.723"><defs><style>.a{fill:#0c9eda;}</style></defs><g transform="translate(-421.5 -979.426)"><path class="a" d="M4.993,10.062V2.549a.3.3,0,0,0-.3-.3H3.3a.3.3,0,0,0-.3.3v7.514H1.857a.6.6,0,0,0-.422,1.02l2.142,2.142a.6.6,0,0,0,.845,0l2.142-2.142a.6.6,0,0,0-.422-1.02Z" transform="translate(426.242 982.75)"/><path class="a" d="M4.993,10.062V2.549a.3.3,0,0,0-.3-.3H3.3a.3.3,0,0,0-.3.3v7.514H1.857a.6.6,0,0,0-.422,1.02l2.142,2.142a.6.6,0,0,0,.845,0l2.142-2.142a.6.6,0,0,0-.422-1.02Z" transform="translate(428.238 992.824) rotate(180)"/></g></svg>