<svg xmlns="http://www.w3.org/2000/svg" width="16.76" height="13.612" viewBox="0 0 16.76 13.612"><defs><style>.a{fill:#0c9eda;}</style></defs><path class="a" d="M15.037,6.773c.011.149.011.3.011.447a9.706,9.706,0,0,1-9.773,9.773A9.707,9.707,0,0,1,0,15.451a7.106,7.106,0,0,0,.829.043,6.879,6.879,0,0,0,4.264-1.468,3.441,3.441,0,0,1-3.212-2.382,4.332,4.332,0,0,0,.649.053,3.633,3.633,0,0,0,.9-.117A3.435,3.435,0,0,1,.681,8.209V8.166A3.459,3.459,0,0,0,2.233,8.6,3.44,3.44,0,0,1,1.17,4.008,9.764,9.764,0,0,0,8.252,7.6a3.878,3.878,0,0,1-.085-.787,3.438,3.438,0,0,1,5.945-2.35,6.763,6.763,0,0,0,2.18-.829,3.426,3.426,0,0,1-1.51,1.893A6.886,6.886,0,0,0,16.76,5a7.384,7.384,0,0,1-1.723,1.776Z" transform="translate(0 -3.381)"/></svg>