<svg xmlns="http://www.w3.org/2000/svg" width="40" height="40" viewBox="0 0 40 40"><defs><style>.a{fill:#0c9eda;}.b{fill:#fff;}</style></defs><g transform="translate(-1830 -30)"><circle class="a" cx="20" cy="20" r="20" transform="translate(1830 30)"/><path class="b" d="M10,11.25A5.625,5.625,0,1,0,4.375,5.625,5.626,5.626,0,0,0,10,11.25Zm5,1.25H12.848a6.8,6.8,0,0,1-5.7,0H5a5,5,0,0,0-5,5v.625A1.875,1.875,0,0,0,1.875,20h16.25A1.875,1.875,0,0,0,20,18.125V17.5A5,5,0,0,0,15,12.5Z" transform="translate(1839.6 40)"/></g></svg>